<?xml version="1.0" encoding="utf-8"?>
<!-- Generator: Adobe Illustrator 21.0.2, SVG Export Plug-In . SVG Version: 6.00 Build 0)  -->
<svg version="1.1" id="Layer_1" xmlns="http://www.w3.org/2000/svg" xmlns:xlink="http://www.w3.org/1999/xlink" x="0px" y="0px"
	 viewBox="0 0 80 80" style="enable-background:new 0 0 80 80;" xml:space="preserve">
<style type="text/css">
	.st0{fill:#25A8E0;}
</style>
<path class="st0" d="M32.5,23.9c-1.8,0-3.3,1.5-3.3,3.3c0,1.8,1.5,3.3,3.3,3.3c1.8,0,3.3-1.5,3.3-3.3C35.8,25.4,34.3,23.9,32.5,23.9
	z M32.5,29.5c-1.3,0-2.3-1.1-2.3-2.3c0-1.3,1.1-2.3,2.3-2.3c1.3,0,2.3,1.1,2.3,2.3C34.8,28.5,33.8,29.5,32.5,29.5z"/>
<path class="st0" d="M47.5,23.9c-1.8,0-3.3,1.5-3.3,3.3c0,1.8,1.5,3.3,3.3,3.3c1.8,0,3.3-1.5,3.3-3.3C50.7,25.4,49.3,23.9,47.5,23.9
	z M47.5,29.5c-1.3,0-2.3-1.1-2.3-2.3c0-1.3,1.1-2.3,2.3-2.3c1.3,0,2.3,1.1,2.3,2.3C49.8,28.5,48.7,29.5,47.5,29.5z"/>
<path class="st0" d="M51.1,12.8c-2.1-2.6-4.5-5.3-7.5-5.3l-16.3,0c0,0-0.1,0-0.2,0c-1.1,0-2.2,0.6-2.2,2.3v5h12.2v-2.6
	c0,0,0.1,0,0.2,0.1l4.2,4.2c0,0,0.1,0.1,0.1,0.1c0,0.1,0,0.1-0.1,0.1l-4.2,4.2c0,0-0.1,0.1-0.2,0.1v-2.6H25v6.5
	c0,2.2,1.5,2.8,2.3,2.8h1.4v-0.5c0-2.1,1.7-3.7,3.7-3.7c2.1,0,3.8,1.7,3.8,3.7v0.5h7.5v-0.5c0-2.1,1.7-3.7,3.8-3.7
	c2.1,0,3.8,1.7,3.8,3.7v0.5h1.4c1.3,0,2.3-1.1,2.3-2.3v-4.2C55,18.3,52.2,14.2,51.1,12.8z M54.1,25.3c0,0.8-0.6,1.4-1.4,1.4h-0.5
	c-0.2-2.4-2.2-4.2-4.7-4.2c-2.4,0-4.4,1.9-4.7,4.2h-5.6c-0.2-2.4-2.2-4.2-4.7-4.2s-4.4,1.9-4.7,4.2h-0.5c-0.1,0-1.4,0-1.4-1.9v-5.6
	h10.4v2.1l0.1,0.1c0.4,0.4,1.2,0.4,1.6,0l4.2-4.2c0.2-0.2,0.3-0.5,0.3-0.8c0-0.3-0.1-0.6-0.3-0.8l-4.2-4.2c-0.4-0.4-1.2-0.4-1.6,0
	l-0.1,0.1v2.2H25.9v-4c0-1.2,0.7-1.4,1.2-1.4c0.1,0,0.1,0,0.2,0h16.3c1.1,0,2.1,0.5,3.1,1.2l0,5.1c0,0-0.1,1.1,0.6,1.8
	c0.4,0.4,0.9,0.6,1.5,0.6h2.3c0.3,0,0.5-0.2,0.5-0.5c0-0.3-0.2-0.5-0.5-0.5h-2.3c-0.4,0-0.7-0.1-0.8-0.3c-0.4-0.4-0.3-1.1-0.3-1.1
	l0-4.4c1,0.9,1.9,2,2.7,3c1.5,1.9,3.6,5.5,3.6,7.7V25.3z"/>
</svg>
