<?xml version="1.0" encoding="utf-8"?>
<!-- Generator: Adobe Illustrator 21.0.2, SVG Export Plug-In . SVG Version: 6.00 Build 0)  -->
<svg version="1.1" id="Layer_1" xmlns="http://www.w3.org/2000/svg" xmlns:xlink="http://www.w3.org/1999/xlink" x="0px" y="0px"
	 viewBox="0 0 80 80" style="enable-background:new 0 0 80 80;" xml:space="preserve">
<style type="text/css">
	.st0{fill:#25A8E0;}
</style>
<path class="st0" d="M40,25.6c-0.2,0-0.3-0.1-0.4-0.2l-6.4-9.5c-1.8-3.1-1.3-7,1.2-9.5C35.9,4.8,37.9,4,40,4c2.1,0,4.1,0.8,5.6,2.3
	c2.5,2.5,3,6.4,1.2,9.5l-6.4,9.5C40.3,25.5,40.2,25.6,40,25.6z M40,4.9c-1.8,0-3.6,0.7-4.9,2c-2.2,2.2-2.7,5.7-1.1,8.4l6,8.9l6-8.9
	c1.6-2.7,1.1-6.1-1.1-8.3C43.6,5.7,41.9,4.9,40,4.9z"/>
<path class="st0" d="M40,16.1c-1.1,0-2.2-0.4-3-1.3c-0.8-0.8-1.2-1.9-1.2-3c0-1.1,0.4-2.2,1.2-3c0.8-0.8,1.9-1.3,3-1.3
	c1.1,0,2.2,0.4,3,1.3c0.8,0.8,1.3,1.9,1.3,3c0,1.1-0.4,2.2-1.3,3C42.2,15.7,41.1,16.1,40,16.1z M40,8.5c-0.9,0-1.7,0.3-2.4,1
	c-0.6,0.6-1,1.5-1,2.4c0,0.9,0.3,1.7,1,2.4c1.3,1.3,3.5,1.3,4.7,0c0.6-0.6,1-1.5,1-2.4c0-0.9-0.3-1.7-1-2.4
	C41.7,8.9,40.9,8.5,40,8.5z"/>
<path class="st0" d="M54.6,31c0,0-2-6-3.2-9.6c-0.4-1.2-1.4-1.8-3-2.5L47,18.2L46.4,19l1.6,0.7c1.6,0.7,2.2,1.2,2.5,2
	c1.2,3.6,3.2,9.6,3.2,9.6c0.4,1.3,0.3,1.6,0.3,1.6c-0.1,0.1-0.4,0.1-1.4-0.4l-6.4-3.1c-0.1-0.1-0.3-0.1-0.4,0l-5.8,3l-6.1-3
	c-0.1-0.1-0.3-0.1-0.4,0l-6.1,3.1C26.3,33.1,26,33,26,33c0,0-0.2-0.3,0.3-1.7c0,0,2-6,3.2-9.6c0.3-0.8,0.8-1.2,2.5-2l1.6-0.7
	L33,18.2l-1.5,0.7c-1.8,0.8-2.6,1.4-3,2.5c-1.2,3.6-3.2,9.6-3.2,9.6c-0.4,1.3-0.5,2.1-0.1,2.5c0.1,0.2,0.4,0.4,0.9,0.4
	c0.4,0,1-0.2,1.8-0.6l5.9-3l6.1,3c0.1,0.1,0.3,0.1,0.4,0l5.8-3l6.2,3c0.7,0.3,1.3,0.5,1.7,0.5c0.5,0,0.8-0.2,0.9-0.4
	C55.1,33,55.1,32.3,54.6,31z"/>
</svg>
