<?xml version="1.0" encoding="utf-8"?>
<!-- Generator: Adobe Illustrator 21.0.2, SVG Export Plug-In . SVG Version: 6.00 Build 0)  -->
<svg version="1.1" id="Layer_1" xmlns="http://www.w3.org/2000/svg" xmlns:xlink="http://www.w3.org/1999/xlink" x="0px" y="0px"
	 viewBox="0 0 80 80" style="enable-background:new 0 0 80 80;" xml:space="preserve">
<style type="text/css">
	.st0{fill:#25A8E0;}
</style>
<path class="st0" d="M52.7,5.1H27.3c-1.3,0-2.3,1.1-2.3,2.3v15c0,1.3,1.1,2.3,2.3,2.3h11.9v-0.9H27.3c-0.8,0-1.4-0.6-1.4-1.4v-15
	c0-0.8,0.6-1.4,1.4-1.4h25.3c0.8,0,1.4,0.6,1.4,1.4V17c0.2,0,0.8,0,0.9,0V7.5C55,6.2,53.9,5.1,52.7,5.1z"/>
<g>
	<rect x="28.3" y="10.4" class="st0" width="2.3" height="1.3"/>
	<path class="st0" d="M28.3,12.5v0.4c0,0.5,0.4,0.9,0.9,0.9h2.2v-1.4H28.3z"/>
	<path class="st0" d="M35.8,9.6V9.2c0-0.5-0.4-0.9-0.9-0.9h-2.2v1.3C32.6,9.6,35.8,9.6,35.8,9.6z"/>
	<path class="st0" d="M31.5,8.2h-2.2c-0.5,0-0.9,0.4-0.9,0.9v0.4h3.2L31.5,8.2C31.5,8.2,31.5,8.2,31.5,8.2z"/>
	<rect x="33.4" y="10.4" class="st0" width="2.3" height="1.3"/>
	<path class="st0" d="M32.6,13.8h2.2c0.5,0,0.9-0.4,0.9-0.9v-0.4h-3.2V13.8L32.6,13.8z"/>
</g>
<path class="st0" d="M38.6,21.1h-9.8c-0.3,0-0.5-0.2-0.5-0.5c0-0.3,0.2-0.5,0.5-0.5h9.8c0.3,0,0.5,0.2,0.5,0.5
	C39.1,20.8,38.9,21.1,38.6,21.1z"/>
<g>
	<path class="st0" d="M40.9,16.5h-4.7c-0.3,0-0.5,0.2-0.5,0.5c0,0.3,0.2,0.5,0.5,0.5h4.7c0.3,0,0.5-0.2,0.5-0.5
		C41.4,16.7,41.2,16.5,40.9,16.5z"/>
	<path class="st0" d="M33.6,16.5h-4.8c-0.3,0-0.5,0.2-0.5,0.5c0,0.3,0.2,0.5,0.5,0.5h4.8c0.3,0,0.5-0.2,0.5-0.5
		C34.1,16.7,33.9,16.5,33.6,16.5z"/>
</g>
<path class="st0" d="M54.5,18.5h-1.7v-2.7c0-2.8-2.2-5-5-5c-2.8,0-5,2.2-5,5v2.7h-1.7c-0.3,0-0.5,0.2-0.5,0.5v11.5
	c0,1.3,1.1,2.4,2.4,2.4h9.6c1.3,0,2.4-1.1,2.4-2.4V19C55,18.7,54.8,18.5,54.5,18.5z M43.7,15.9c0-2.2,1.8-4.1,4.1-4.1
	c2.2,0,4.1,1.8,4.1,4.1v2.7h-8.1V15.9z M54.1,30.5c0,0.8-0.6,1.5-1.4,1.5H43c-0.8,0-1.4-0.7-1.4-1.5v-11h12.5V30.5z"/>
<path class="st0" d="M47.8,22c-1.3,0-2.4,1.1-2.4,2.4c0,0.7,0.3,1.3,0.8,1.8v1.6c0,0.9,0.7,1.6,1.6,1.6c0.9,0,1.6-0.7,1.6-1.6v-1.6
	c0.5-0.4,0.8-1.1,0.8-1.8C50.2,23.1,49.1,22,47.8,22z M48.7,25.6l-0.2,0.1v2c0,0.4-0.3,0.6-0.6,0.6c-0.4,0-0.7-0.3-0.7-0.6v-2
	L47,25.6c-0.4-0.3-0.6-0.7-0.6-1.2c0-0.8,0.6-1.4,1.4-1.4c0.8,0,1.4,0.7,1.4,1.4C49.3,24.9,49,25.3,48.7,25.6z"/>
</svg>
