<svg id="Layer_1" data-name="Layer 1" xmlns="http://www.w3.org/2000/svg" viewBox="0 0 80 80"><defs><style>.cls-1{fill:#25a8e0;}</style></defs><title>icon_home_1</title><path class="cls-1" d="M40,57.5a1.26,1.26,0,0,1-1-.55L21.88,31.56A21,21,0,0,1,25.17,6.15a21,21,0,0,1,33,25.34L41,57A1.28,1.28,0,0,1,40,57.5Zm0-55A18.48,18.48,0,0,0,24,30.23L40,54l16-23.84A18.48,18.48,0,0,0,40,2.5Z"/><path class="cls-1" d="M40,32.38A11.39,11.39,0,1,1,48.06,29,11.3,11.3,0,0,1,40,32.38Zm0-20.26a8.88,8.88,0,0,0-6.27,15.16,9.1,9.1,0,0,0,12.56,0A8.88,8.88,0,0,0,40,12.11Z"/><path class="cls-1" d="M79,72.13S73.66,56,70.51,46.49c-1.09-3.29-3.66-4.92-8-6.76L58.59,38l-1.42,2.11,4.34,2c4.3,1.84,5.91,3.11,6.62,5.26,3.16,9.55,8.54,25.66,8.56,25.67,1.18,3.48.74,4.25.7,4.32s-1.12.28-3.86-1L56.54,68a1.23,1.23,0,0,0-1.12,0L40,76,23.77,68a1.22,1.22,0,0,0-1.11,0L6.49,76.28c-2.94,1.43-3.87,1.18-3.88,1.18s-.53-.67.73-4.53c0,0,5.39-16.11,8.55-25.66.69-2.09,2.06-3.17,6.66-5.27l4.32-1.92L21.44,38,17.5,39.72c-4.69,2.15-7,3.63-8,6.76C6.36,56,1,72.13,1,72.14-.19,75.68-.3,77.71.58,78.93A2.72,2.72,0,0,0,2.91,80,11.68,11.68,0,0,0,7.6,78.53l15.63-8,16.23,8a1.23,1.23,0,0,0,1.13,0l15.42-8,16.46,8A11.41,11.41,0,0,0,77,79.85a2.85,2.85,0,0,0,2.45-1.13C80.3,77.47,80.19,75.49,79,72.13Z"/></svg>